
<svg xmlns="http://www.w3.org/2000/svg" version="1.1" xmlns:xlink="http://www.w3.org/1999/xlink" preserveAspectRatio="none" x="0px" y="0px" width="180px" height="100px" viewBox="0 0 180 100">
<defs>
<g id="Layer1_0_FILL">
<path fill="#000000" stroke="none" d="
M 37.15 67.95
Q 32.25 65.6 27.55 66 20.85 66.55 15.85 69.5 11.65 72.1 9.05 75 6.05 78.4 4.95 82.65 4.15 85.65 5.45 88.9 6.75 92.15 9.35 93.8 12.55 95.7 16.15 96.2 19.45 96.55 23.35 95.75 32.05 94 38.35 87.65 42.95 82.9 42.95 77.1
L 43 3.8 38.4 3.8 38.4 68.3 38.2 68.35
Q 37.45 68.1 37.15 67.95
M 163.9 31.2
Q 167.05 34.4 169.55 40.7 172.05 46.95 172.05 50.7 172 54.45 171.4 57.35 170.75 60.2 169.55 63.4 168.9 65.2 167.5 68.85 172.2 63.05 174.6 56.5 177.6 48.25 176.4 40.25 175.15 32.2 168.95 23.05 162.75 13.85 153.2 3.85 151.3 2.25 150.9 -0.45 148.8 1.1 148.65 4.05
L 148.65 68.55 148.45 68.6
Q 147.7 68.35 147.4 68.2 142.5 65.85 137.8 66.25 131.1 66.8 126.1 69.75 121.9 72.35 119.3 75.25 116.3 78.65 115.2 82.9 114.4 85.9 115.7 89.15 117 92.4 119.6 94.05 122.8 95.95 126.4 96.45 129.7 96.8 133.6 96 142.3 94.25 148.6 87.9 153.2 83.15 153.2 77.35
L 153.25 20.55
Q 155.15 22.5 157.95 25.2 160.75 27.95 163.9 31.2 Z"/>
</g>
</defs>

<g transform="matrix( 1, 0, 0, 1, 0,0) ">
<use xlink:href="#Layer1_0_FILL"/>
</g>
</svg>
