
<svg xmlns="http://www.w3.org/2000/svg" version="1.1" xmlns:xlink="http://www.w3.org/1999/xlink" preserveAspectRatio="none" x="0px" y="0px" width="240px" height="100px" viewBox="0 0 240 100">
<defs>
<g id="Layer1_0_FILL">
<path fill="#000000" stroke="none" d="
M 108 3.8
L 103.4 3.8 103.4 68.3 103.2 68.35
Q 102.45 68.1 102.15 67.95 97.25 65.6 92.55 66 85.85 66.55 80.85 69.5 76.65 72.1 74.05 75 71.05 78.4 69.95 82.65 69.15 85.65 70.45 88.9 71.75 92.15 74.35 93.8 77.55 95.7 81.15 96.2 84.45 96.55 88.35 95.75 97.05 94 103.35 87.65 107.95 82.9 107.95 77.1
L 108 3.8
M 175.5 3.8
L 170.9 3.8 170.9 68.3 170.7 68.35
Q 169.95 68.1 169.65 67.95 164.75 65.6 160.05 66 153.35 66.55 148.35 69.5 144.15 72.1 141.55 75 138.55 78.4 137.45 82.65 136.65 85.65 137.95 88.9 139.25 92.15 141.85 93.8 145.05 95.7 148.65 96.2 151.95 96.55 155.85 95.75 164.55 94 170.85 87.65 175.45 82.9 175.45 77.1
L 175.5 3.8
M 237.5 3.8
L 232.9 3.8 232.9 68.3 232.7 68.35
Q 231.95 68.1 231.65 67.95 226.75 65.6 222.05 66 215.35 66.55 210.35 69.5 206.15 72.1 203.55 75 200.55 78.4 199.45 82.65 198.65 85.65 199.95 88.9 201.25 92.15 203.85 93.8 207.05 95.7 210.65 96.2 213.95 96.55 217.85 95.75 226.55 94 232.85 87.65 237.45 82.9 237.45 77.1
L 237.5 3.8
M 37.15 68.3
L 36.95 68.35
Q 36.2 68.1 35.9 67.95 31 65.6 26.3 66 19.6 66.55 14.6 69.5 10.4 72.1 7.8 75 4.8 78.4 3.7 82.65 2.9 85.65 4.2 88.9 5.5 92.15 8.1 93.8 11.3 95.7 14.9 96.2 18.2 96.55 22.1 95.75 30.8 94 37.1 87.65 41.7 82.9 41.7 77.1
L 41.75 3.8 37.15 3.8 37.15 68.3 Z"/>
</g>

<g id="Layer0_0_FILL">
<path fill="#000000" stroke="none" d="
M 237.55 48
L 237.55 28.8 37.2 28.8 37.2 48 237.55 48
M 237.55 22.5
L 237.55 3.3 37.2 3.3 37.2 22.5 237.55 22.5 Z"/>
</g>
</defs>

<g transform="matrix( 1, 0, 0, 1, 0,0) ">
<use xlink:href="#Layer1_0_FILL"/>
</g>

<g transform="matrix( 1, 0, 0, 1, 0,0) ">
<use xlink:href="#Layer0_0_FILL"/>
</g>
</svg>
