
<svg xmlns="http://www.w3.org/2000/svg" version="1.1" xmlns:xlink="http://www.w3.org/1999/xlink" preserveAspectRatio="none" x="0px" y="0px" width="60px" height="100px" viewBox="0 0 60 100">
<defs>
<g id="Layer1_0_FILL">
<path fill="#000000" stroke="none" d="
M 58.8 43.4
Q 57.6 35.8 51.75 27.2 46.1 18.75 37.45 9.65 37.2 9.35 36.9 9.05 35.1 7.55 34.75 5 32.75 6.5 32.6 9.25
L 32.6 70.1 32.45 70.15
Q 31.7 69.9 31.45 69.75 28.75 68.5 26.15 68.05 24.25 67.8 22.4 67.95 16.05 68.45 11.35 71.25 7.4 73.7 4.95 76.4 2.1 79.6 1.05 83.65 0.3 86.45 1.55 89.55 2.75 92.6 5.2 94.15 8.25 95.95 11.65 96.4 14.75 96.75 18.4 96 22.55 95.15 26.15 93.2 29.65 91.3 32.55 88.35 36.9 83.85 36.9 78.4
L 36.95 43.55
Q 37.8 44.4 38.9 45.45 40.5 47.05 42.3 48.85 44.05 50.7 45.55 54.3 46.95 57.9 46.95 60.05 46.95 62.15 46.55 63.8 46.2 65.5 45.55 67.3 45.15 68.35 44.35 70.45 47.05 67.1 48.4 63.35 50.1 58.65 49.45 54.05 48.75 49.45 45.2 44.2 41.9 39.35 36.95 34.1
L 36.95 24.8
Q 37.2 25.05 37.45 25.3 39.1 27 41.4 29.2 44.05 31.8 47 34.85 49.95 37.9 52.35 43.85 54.7 49.7 54.7 53.25 54.65 56.8 54.05 59.55 53.45 62.2 52.35 65.25 51.7 66.95 50.4 70.4 54.85 64.9 57.1 58.75 59.9 50.95 58.8 43.4 Z"/>
</g>
</defs>

<g transform="matrix( 1, 0, 0, 1, 0,0) ">
<use xlink:href="#Layer1_0_FILL"/>
</g>
</svg>
