
<svg xmlns="http://www.w3.org/2000/svg" version="1.1" xmlns:xlink="http://www.w3.org/1999/xlink" preserveAspectRatio="none" x="0px" y="0px" width="240px" height="100px" viewBox="0 0 240 100">
<defs>
<g id="Layer1_0_FILL">
<path fill="#000000" stroke="none" d="
M 182.5 3.8
L 177.9 3.8 177.9 68.3 177.7 68.35
Q 176.95 68.1 176.65 67.95 171.75 65.6 167.05 66 160.35 66.55 155.35 69.5 151.15 72.1 148.55 75 145.55 78.4 144.45 82.65 143.65 85.65 144.95 88.9 146.25 92.15 148.85 93.8 152.05 95.7 155.65 96.2 158.95 96.55 162.85 95.75 171.55 94 177.85 87.65 182.45 82.9 182.45 77.1
L 182.5 3.8
M 37.15 68.3
L 36.95 68.35
Q 36.2 68.1 35.9 67.95 31 65.6 26.3 66 19.6 66.55 14.6 69.5 10.4 72.1 7.8 75 4.8 78.4 3.7 82.65 2.9 85.65 4.2 88.9 5.5 92.15 8.1 93.8 11.3 95.7 14.9 96.2 18.2 96.55 22.1 95.75 30.8 94 37.1 87.65 41.7 82.9 41.7 77.1
L 41.75 3.8 37.15 3.8 37.15 68.3
M 108 3.8
L 103.4 3.8 103.4 68.3 103.2 68.35
Q 102.45 68.1 102.15 67.95 97.25 65.6 92.55 66 85.85 66.55 80.85 69.5 76.65 72.1 74.05 75 71.05 78.4 69.95 82.65 69.15 85.65 70.45 88.9 71.75 92.15 74.35 93.8 77.55 95.7 81.15 96.2 84.45 96.55 88.35 95.75 97.05 94 103.35 87.65 107.95 82.9 107.95 77.1
L 108 3.8 Z"/>
</g>

<g id="Layer0_0_FILL">
<path fill="#000000" stroke="none" d="
M 182.55 22.5
L 182.55 3.3 37.25 3.3 37.25 22.5 182.55 22.5
M 108.05 48
L 108.05 28.8 37.25 28.8 37.25 48 108.05 48 Z"/>
</g>
</defs>

<g transform="matrix( 1, 0, 0, 1, 0,0) ">
<use xlink:href="#Layer1_0_FILL"/>
</g>

<g transform="matrix( 1, 0, 0, 1, 0,0) ">
<use xlink:href="#Layer0_0_FILL"/>
</g>
</svg>
