
<svg xmlns="http://www.w3.org/2000/svg" version="1.1" xmlns:xlink="http://www.w3.org/1999/xlink" preserveAspectRatio="none" x="0px" y="0px" width="240px" height="100px" viewBox="0 0 240 100">
<defs>
<g id="Layer1_0_FILL">
<path fill="#000000" stroke="none" d="
M 108 3.8
L 103.4 3.8 103.4 68.3 103.2 68.35
Q 102.45 68.1 102.15 67.95 97.25 65.6 92.55 66 85.85 66.55 80.85 69.5 76.65 72.1 74.05 75 71.05 78.4 69.95 82.65 69.15 85.65 70.45 88.9 71.75 92.15 74.35 93.8 77.55 95.7 81.15 96.2 84.45 96.55 88.35 95.75 97.05 94 103.35 87.65 107.95 82.9 107.95 77.1
L 108 3.8
M 175.5 3.8
L 170.9 3.8 170.9 68.3 170.7 68.35
Q 169.95 68.1 169.65 67.95 164.75 65.6 160.05 66 153.35 66.55 148.35 69.5 144.15 72.1 141.55 75 138.55 78.4 137.45 82.65 136.65 85.65 137.95 88.9 139.25 92.15 141.85 93.8 145.05 95.7 148.65 96.2 151.95 96.55 155.85 95.75 164.55 94 170.85 87.65 175.45 82.9 175.45 77.1
L 175.5 3.8 Z"/>
</g>

<g id="Duplicate_Items_Folder_Notes_83_Layer0_0_FILL">
<path fill="#000000" stroke="none" d="
M 31.4 168
Q 29.2 166.8 26 166.85 22.65 166.75 20.5 168 18.15 169.25 15.75 172.15 14.6 173.6 11.9 177.55 10.2 180.1 6.25 186.8 3.75 191.1 1.85 194 1.05 195.1 0.4 196 -5.8 204.35 -14.2 208.45 -22.45 212.3 -31.75 211.85 -31.25 201.5 -30.9 196.45 -30.65 187.7 -31.7 182.05 -34.75 166.65 -47.75 156.9 -60.35 147.4 -76 148.1 -92.05 148.7 -103.75 159.5 -115.45 170.1 -118.1 186.5 -120.5 201.5 -112.5 214.85 -104.4 228.2 -89.65 233.9 -65.7 243.2 -37.15 239.9 -28.3 238.9 -9.45 236.2 -9.4 236.15 -9.35 236.15 -10.4 241.1 -12.3 250.45 -13.85 258.6 -15.2 263.95 -16.8 270.05 -23.45 295.35 -27.15 298.7 -31.45 300.8 -38.55 304.15 -46.55 303.75 -46.15 294.9 -45.85 290.6 -45.65 283.05 -46.5 278.2 -49.15 264.95 -60.25 256.6 -71.15 248.4 -84.5 249.05 -98.35 249.55 -108.3 258.8 -118.4 267.95 -120.65 281.95 -122.75 294.85 -115.9 306.35 -108.9 317.8 -96.25 322.7 -75.7 330.6 -51.15 327.8 -44.5 327.05 -31.45 325.25 -37.75 349.25 -41.7 365.7 -43.4 372.3 -44.1 381.45 -44.2 383.35 -44.95 397.55 -45.2 401.4 -42.75 403.75 -40.55 405.85 -36.15 406.2 -27.75 407.05 -25.05 399.4 -23.4 394.85 -22.5 391.8 -7.4 336.75 0.05 309.1 13.15 261.1 22.45 226.3 28.25 204.6 34.15 177.1 34.65 174.85 33.85 171.85 32.9 168.75 31.4 168 Z"/>
</g>

<g id="Layer0_0_FILL">
<path fill="#000000" stroke="none" d="
M 130.05 48
L 130.05 28.8 103.45 28.8 103.45 48 130.05 48
M 175.5 22.5
L 175.5 3.3 103.4 3.3 103.4 22.5 175.5 22.5 Z"/>
</g>
</defs>

<g transform="matrix( 1, 0, 0, 1, 0,0) ">
<use xlink:href="#Layer1_0_FILL"/>
</g>

<g transform="matrix( 0.2978973388671875, 0, 0, 0.2978973388671875, 48.95,-30.85) ">
<g transform="matrix( 1, 0, 0, 1, 0,0) ">
<use xlink:href="#Duplicate_Items_Folder_Notes_83_Layer0_0_FILL"/>
</g>
</g>

<g transform="matrix( 1, 0, 0, 1, 0,0) ">
<use xlink:href="#Layer0_0_FILL"/>
</g>
</svg>
