
<svg xmlns="http://www.w3.org/2000/svg" version="1.1" xmlns:xlink="http://www.w3.org/1999/xlink" preserveAspectRatio="none" x="0px" y="0px" width="240px" height="100px" viewBox="0 0 240 100">
<defs>
<g id="Layer1_0_FILL">
<path fill="#000000" stroke="none" d="
M 119.85 73.7
Q 118.2 72 115.8 72 113.4 72 111.7 73.7 110 75.4 110 77.8 110 80.2 111.7 81.85 113.4 83.6 115.8 83.6 118.2 83.6 119.85 81.85 121.6 80.2 121.6 77.8 121.6 75.4 119.85 73.7
M 109.25 25.15
Q 112.05 27.9 115.2 31.15 118.35 34.35 120.85 40.65 123.35 46.9 123.35 50.65 123.3 54.4 122.7 57.3 122.05 60.15 120.85 63.35 120.2 65.15 118.8 68.8 123.5 63 125.9 56.45 128.9 48.2 127.7 40.2 126.45 32.15 120.25 23 114.05 13.8 104.5 3.8 102.6 2.2 102.2 -0.5 100.1 1.05 99.95 4
L 99.95 68.5 99.75 68.55
Q 99 68.3 98.7 68.15 93.8 65.8 89.1 66.2 82.4 66.75 77.4 69.7 74.25 71.65 72 73.8 71.25 74.5 70.6 75.2 67.6 78.6 66.5 82.85 65.7 85.85 67 89.1 68.3 92.35 70.9 94 71.45 94.3 72 94.6 74.7 96 77.7 96.4 81 96.75 84.9 95.95 93.6 94.2 99.9 87.85 104.5 83.1 104.5 77.3
L 104.55 20.5
Q 106.45 22.45 109.25 25.15 Z"/>
</g>

<g id="Duplicate_Items_Folder_Notes_83_Layer0_0_FILL">
<path fill="#000000" stroke="none" d="
M 31.4 168
Q 29.2 166.8 26 166.85 22.65 166.75 20.5 168 18.15 169.25 15.75 172.15 14.6 173.6 11.9 177.55 10.2 180.1 6.25 186.8 3.75 191.1 1.85 194 1.05 195.1 0.4 196 -5.8 204.35 -14.2 208.45 -22.45 212.3 -31.75 211.85 -31.25 201.5 -30.9 196.45 -30.65 187.7 -31.7 182.05 -34.75 166.65 -47.75 156.9 -60.35 147.4 -76 148.1 -92.05 148.7 -103.75 159.5 -115.45 170.1 -118.1 186.5 -120.5 201.5 -112.5 214.85 -104.4 228.2 -89.65 233.9 -65.7 243.2 -37.15 239.9 -28.3 238.9 -9.45 236.2 -9.4 236.15 -9.35 236.15 -10.4 241.1 -12.3 250.45 -13.85 258.6 -15.2 263.95 -16.8 270.05 -23.45 295.35 -27.15 298.7 -31.45 300.8 -38.55 304.15 -46.55 303.75 -46.15 294.9 -45.85 290.6 -45.65 283.05 -46.5 278.2 -49.15 264.95 -60.25 256.6 -71.15 248.4 -84.5 249.05 -98.35 249.55 -108.3 258.8 -118.4 267.95 -120.65 281.95 -122.75 294.85 -115.9 306.35 -108.9 317.8 -96.25 322.7 -75.7 330.6 -51.15 327.8 -44.5 327.05 -31.45 325.25 -37.75 349.25 -41.7 365.7 -43.4 372.3 -44.1 381.45 -44.2 383.35 -44.95 397.55 -45.2 401.4 -42.75 403.75 -40.55 405.85 -36.15 406.2 -27.75 407.05 -25.05 399.4 -23.4 394.85 -22.5 391.8 -7.4 336.75 0.05 309.1 13.15 261.1 22.45 226.3 28.25 204.6 34.15 177.1 34.65 174.85 33.85 171.85 32.9 168.75 31.4 168 Z"/>
</g>
</defs>

<g transform="matrix( 1, 0, 0, 1, 0,0) ">
<use xlink:href="#Layer1_0_FILL"/>
</g>

<g transform="matrix( 0.2978973388671875, 0, 0, 0.2978973388671875, 48.95,-30.85) ">
<g transform="matrix( 1, 0, 0, 1, 0,0) ">
<use xlink:href="#Duplicate_Items_Folder_Notes_83_Layer0_0_FILL"/>
</g>
</g>
</svg>
