
<svg xmlns="http://www.w3.org/2000/svg" version="1.1" xmlns:xlink="http://www.w3.org/1999/xlink" preserveAspectRatio="none" x="0px" y="0px" width="120px" height="100px" viewBox="0 0 120 100">
<defs>
<g id="Layer1_0_FILL">
<path fill="#000000" stroke="none" d="
M 95.5 5.8
Q 93.6 4.2 93.2 1.5 91.1 3.05 90.95 6
L 90.95 70.5 90.75 70.55
Q 90 70.3 89.7 70.15 84.8 67.8 80.1 68.2 73.4 68.75 68.4 71.7 64.2 74.3 61.6 77.2 58.6 80.6 57.5 84.85 56.7 87.85 58 91.1 59.3 94.35 61.9 96 65.1 97.9 68.7 98.4 72 98.75 75.9 97.95 84.6 96.2 90.9 89.85 95.5 85.1 95.5 79.3
L 95.55 22.5
Q 97.45 24.45 100.25 27.15 103.05 29.9 106.2 33.15 109.35 36.35 111.85 42.65 114.35 48.9 114.35 52.65 114.3 56.4 113.7 59.3 113.05 62.15 111.85 65.35 111.2 67.15 109.8 70.8 114.5 65 116.9 58.45 119.9 50.2 118.7 42.2 117.45 34.15 111.25 25 105.05 15.8 95.5 5.8 Z"/>
</g>

<g id="Duplicate_Items_Folder_Notes_74_Layer0_0_FILL">
<path fill="#000000" stroke="none" d="
M 52.2 -32.75
Q 25.75 -32.2 6.2 -15.05 -13.3 2 -18.25 28.8 -22.7 53.35 -10 75.55 2.7 97.7 26.85 107.6 65.7 123.65 112.7 119.2 127.3 117.8 158.4 114 156.6 122.05 153.25 137.3 150.35 150.6 147.85 159.45 144.1 172.85 124.05 242.35 109.5 292.9 100.9 325.4 97.95 336.3 96.45 351.2 96.15 354.25 94.5 377.55 94 383.9 97.9 387.7 101.6 391.3 108.5 392.15 122.35 393.8 127.1 381.2 130.05 373.8 131.5 368.95 158.15 279 171.4 234 194.5 155.7 211 99 221.35 63.75 231.9 18.65 232.7 15 231.45 10.05 230.05 4.9 227.65 3.55 224.1 1.5 218.75 1.45 213.35 1.3 209.75 3.2 205.85 5.25 201.85 9.9 199.9 12.3 195.3 18.65 192.45 22.7 185.75 33.7 179.85 43.35 175.8 48.5 165.35 61.95 151.45 68.35 137.85 74.5 122.45 73.35 123.8 56.4 124.35 48.2 125.3 33.8 123.65 24.55 119.15 -0.85 98.3 -17.2 77.85 -33.3 52.2 -32.75 Z"/>
</g>
</defs>

<g transform="matrix( 1, 0, 0, 1, 0,0) ">
<use xlink:href="#Layer1_0_FILL"/>
</g>

<g transform="matrix( 0.2978973388671875, 0, 0, 0.2978973388671875, 40.4,-29.25) ">
<g transform="matrix( 0.6094970703125, 0, 0, 0.6094970703125, -103.95,162.1) ">
<use xlink:href="#Duplicate_Items_Folder_Notes_74_Layer0_0_FILL"/>
</g>
</g>
</svg>
