
<svg xmlns="http://www.w3.org/2000/svg" version="1.1" xmlns:xlink="http://www.w3.org/1999/xlink" preserveAspectRatio="none" x="0px" y="0px" width="240px" height="100px" viewBox="0 0 240 100">
<defs>
<g id="Layer1_0_FILL">
<path fill="#000000" stroke="none" d="
M 90.75 3.3
L 86.15 3.3 86.15 67.8 85.95 67.85
Q 85.2 67.6 84.9 67.45 80 65.1 75.3 65.5 68.6 66.05 63.6 69 59.4 71.6 56.8 74.5 53.8 77.9 52.7 82.15 51.9 85.15 53.2 88.4 54.5 91.65 57.1 93.3 60.3 95.2 63.9 95.7 67.2 96.05 71.1 95.25 79.8 93.5 86.1 87.15 90.7 82.4 90.7 76.6
L 90.75 3.3
M 198.05 3.25
L 193.45 3.25 193.45 67.75 193.25 67.8
Q 192.5 67.55 192.2 67.4 187.3 65.05 182.6 65.45 175.9 66 170.9 68.95 166.7 71.55 164.1 74.45 161.1 77.85 160 82.1 159.2 85.1 160.5 88.35 161.8 91.6 164.4 93.25 167.6 95.15 171.2 95.65 174.5 96 178.4 95.2 187.1 93.45 193.4 87.1 198 82.35 198 76.55
L 198.05 3.25 Z"/>
</g>

<g id="Layer0_0_FILL">
<path fill="#000000" stroke="none" d="
M 198.15 25.5
L 198.15 3.3 86.2 3.3 86.2 25.5 198.15 25.5 Z"/>
</g>
</defs>

<g transform="matrix( 1, 0, 0, 1, 0,0) ">
<use xlink:href="#Layer1_0_FILL"/>
</g>

<g transform="matrix( 1, 0, 0, 1, 0,0) ">
<use xlink:href="#Layer0_0_FILL"/>
</g>
</svg>
