
<svg xmlns="http://www.w3.org/2000/svg" version="1.1" xmlns:xlink="http://www.w3.org/1999/xlink" preserveAspectRatio="none" x="0px" y="0px" width="240px" height="100px" viewBox="0 0 240 100">
<defs>
<g id="Layer1_0_FILL">
<path fill="#000000" stroke="none" d="
M 146.25 3.3
L 141.65 3.3 141.65 67.8 141.45 67.85
Q 140.7 67.6 140.4 67.45 135.5 65.1 130.8 65.5 124.1 66.05 119.1 69 114.9 71.6 112.3 74.5 109.3 77.9 108.2 82.15 107.4 85.15 108.7 88.4 110 91.65 112.6 93.3 115.8 95.2 119.4 95.7 122.7 96.05 126.6 95.25 135.3 93.5 141.6 87.15 146.2 82.4 146.2 76.6
L 146.25 3.3 Z"/>
</g>
</defs>

<g transform="matrix( 1, 0, 0, 1, 0,0) ">
<use xlink:href="#Layer1_0_FILL"/>
</g>
</svg>
