
<svg xmlns="http://www.w3.org/2000/svg" version="1.1" xmlns:xlink="http://www.w3.org/1999/xlink" preserveAspectRatio="none" x="0px" y="0px" width="180px" height="100px" viewBox="0 0 180 100">
<defs>
<g id="Layer1_0_FILL">
<path fill="#000000" stroke="none" d="
M 115.8 72
Q 113.4 72 111.7 73.7 110 75.4 110 77.8 110 80.2 111.7 81.85 113.4 83.6 115.8 83.6 118.2 83.6 119.85 81.85 121.6 80.2 121.6 77.8 121.6 75.4 119.85 73.7 118.2 72 115.8 72
M 105.5 3.8
L 100.9 3.8 100.9 68.3 100.7 68.35
Q 99.95 68.1 99.65 67.95 94.75 65.6 90.05 66 83.35 66.55 78.35 69.5 74.15 72.1 71.55 75 68.55 78.4 67.45 82.65 66.65 85.65 67.95 88.9 69.25 92.15 71.85 93.8 75.05 95.7 78.65 96.2 81.95 96.55 85.85 95.75 94.55 94 100.85 87.65 105.45 82.9 105.45 77.1
L 105.5 3.8 Z"/>
</g>
</defs>

<g transform="matrix( 1, 0, 0, 1, 0,0) ">
<use xlink:href="#Layer1_0_FILL"/>
</g>
</svg>
