
<svg xmlns="http://www.w3.org/2000/svg" version="1.1" xmlns:xlink="http://www.w3.org/1999/xlink" preserveAspectRatio="none" x="0px" y="0px" width="240px" height="100px" viewBox="0 0 240 100">
<defs>
<g id="Layer1_0_FILL">
<path fill="#000000" stroke="none" d="
M 214 5.8
Q 212.1 4.2 211.7 1.5 209.6 3.05 209.45 6
L 209.45 70.5 209.25 70.55
Q 208.5 70.3 208.2 70.15 203.3 67.8 198.6 68.2 191.9 68.75 186.9 71.7 182.7 74.3 180.1 77.2 177.1 80.6 176 84.85 175.2 87.85 176.5 91.1 177.8 94.35 180.4 96 183.6 97.9 187.2 98.4 190.5 98.75 194.4 97.95 203.1 96.2 209.4 89.85 214 85.1 214 79.3
L 214.05 42.35
Q 214.95 43.25 216.1 44.35 217.8 46.05 219.7 48 221.6 49.95 223.15 53.75 224.65 57.55 224.65 59.85 224.65 62.1 224.25 63.85 223.85 65.6 223.15 67.55 222.75 68.65 221.9 70.85 224.75 67.3 226.2 63.35 228 58.35 227.3 53.5 226.55 48.6 222.8 43.05 219.3 37.9 214.05 32.35
L 214.05 22.5
Q 214.3 22.75 214.55 23 216.3 24.8 218.75 27.15 221.55 29.9 224.7 33.15 227.85 36.35 230.35 42.65 232.85 48.9 232.85 52.65 232.8 56.4 232.2 59.3 231.55 62.15 230.35 65.35 229.7 67.15 228.3 70.8 233 65 235.4 58.45 238.4 50.2 237.2 42.2 235.95 34.15 229.75 25 223.75 16.05 214.55 6.4 214.3 6.1 214 5.8 Z"/>
</g>

<g id="Duplicate_Items_Folder_Notes_83_Layer0_0_FILL">
<path fill="#000000" stroke="none" d="
M 31.4 168
Q 29.2 166.8 26 166.85 22.65 166.75 20.5 168 18.15 169.25 15.75 172.15 14.6 173.6 11.9 177.55 10.2 180.1 6.25 186.8 3.75 191.1 1.85 194 1.05 195.1 0.4 196 -5.8 204.35 -14.2 208.45 -22.45 212.3 -31.75 211.85 -31.25 201.5 -30.9 196.45 -30.65 187.7 -31.7 182.05 -34.75 166.65 -47.75 156.9 -60.35 147.4 -76 148.1 -92.05 148.7 -103.75 159.5 -115.45 170.1 -118.1 186.5 -120.5 201.5 -112.5 214.85 -104.4 228.2 -89.65 233.9 -65.7 243.2 -37.15 239.9 -28.3 238.9 -9.45 236.2 -9.4 236.15 -9.35 236.15 -10.4 241.1 -12.3 250.45 -13.85 258.6 -15.2 263.95 -16.8 270.05 -23.45 295.35 -27.15 298.7 -31.45 300.8 -38.55 304.15 -46.55 303.75 -46.15 294.9 -45.85 290.6 -45.65 283.05 -46.5 278.2 -49.15 264.95 -60.25 256.6 -71.15 248.4 -84.5 249.05 -98.35 249.55 -108.3 258.8 -118.4 267.95 -120.65 281.95 -122.75 294.85 -115.9 306.35 -108.9 317.8 -96.25 322.7 -75.7 330.6 -51.15 327.8 -44.5 327.05 -31.45 325.25 -37.75 349.25 -41.7 365.7 -43.4 372.3 -44.1 381.45 -44.2 383.35 -44.95 397.55 -45.2 401.4 -42.75 403.75 -40.55 405.85 -36.15 406.2 -27.75 407.05 -25.05 399.4 -23.4 394.85 -22.5 391.8 -7.4 336.75 0.05 309.1 13.15 261.1 22.45 226.3 28.25 204.6 34.15 177.1 34.65 174.85 33.85 171.85 32.9 168.75 31.4 168 Z"/>
</g>

<g id="Duplicate_Items_Folder_Notes_74_Layer0_0_FILL">
<path fill="#000000" stroke="none" d="
M 52.2 -32.75
Q 25.75 -32.2 6.2 -15.05 -13.3 2 -18.25 28.8 -22.7 53.35 -10 75.55 2.7 97.7 26.85 107.6 65.7 123.65 112.7 119.2 127.3 117.8 158.4 114 156.6 122.05 153.25 137.3 150.35 150.6 147.85 159.45 144.1 172.85 124.05 242.35 109.5 292.9 100.9 325.4 97.95 336.3 96.45 351.2 96.15 354.25 94.5 377.55 94 383.9 97.9 387.7 101.6 391.3 108.5 392.15 122.35 393.8 127.1 381.2 130.05 373.8 131.5 368.95 158.15 279 171.4 234 194.5 155.7 211 99 221.35 63.75 231.9 18.65 232.7 15 231.45 10.05 230.05 4.9 227.65 3.55 224.1 1.5 218.75 1.45 213.35 1.3 209.75 3.2 205.85 5.25 201.85 9.9 199.9 12.3 195.3 18.65 192.45 22.7 185.75 33.7 179.85 43.35 175.8 48.5 165.35 61.95 151.45 68.35 137.85 74.5 122.45 73.35 123.8 56.4 124.35 48.2 125.3 33.8 123.65 24.55 119.15 -0.85 98.3 -17.2 77.85 -33.3 52.2 -32.75 Z"/>
</g>
</defs>

<g transform="matrix( 1, 0, 0, 1, 0,0) ">
<use xlink:href="#Layer1_0_FILL"/>
</g>

<g transform="matrix( 0.2978973388671875, 0, 0, 0.2978973388671875, 160.95,-30.85) ">
<g transform="matrix( 1, 0, 0, 1, 0,0) ">
<use xlink:href="#Duplicate_Items_Folder_Notes_83_Layer0_0_FILL"/>
</g>
</g>

<g transform="matrix( 0.2978973388671875, 0, 0, 0.2978973388671875, 72.45,-30.85) ">
<g transform="matrix( 0.6094970703125, 0, 0, 0.6094970703125, -103.95,162.1) ">
<use xlink:href="#Duplicate_Items_Folder_Notes_74_Layer0_0_FILL"/>
</g>
</g>
</svg>
