
<svg xmlns="http://www.w3.org/2000/svg" version="1.1" xmlns:xlink="http://www.w3.org/1999/xlink" preserveAspectRatio="none" x="0px" y="0px" width="240px" height="100px" viewBox="0 0 240 100">
<defs>
<g id="Duplicate_Items_Folder_Note_copy_3_6_Layer3_0_FILL">
<path fill="#000000" stroke="none" d="
M 114.3 90.85
Q 114.1 85.9 110.6 81.55 97.1 63.95 89.9 55.55 80.85 45.1 67.15 29.55
L 41.15 0
Q 42.75 6.4 45.55 13.2 52.1 29.3 54.85 40.8 58.45 56.1 57.25 69.85 56.95 73.8 56 75.45 43.1 98.55 36.25 109.85 28.95 122 13.75 145.9 10.6 151.1 12.1 158.05 13.4 163.9 16.25 170.3 18.4 175.05 22.2 181.75 38.8 211.15 62.9 236.5
L 67.75 241.9
Q 63.55 243 61.6 243.5 58.15 244.4 55.85 244.7 51.4 245.3 41.75 246.3 32.55 247.25 27.7 247.9 7.1 250.8 2.45 270.1 1.8 272.8 1.1 276.85 0.75 279.1 0 283.65
L 0 294.75 0.45 295.5
Q 1.95 306.2 9.95 317.25 16.15 325.9 25.3 334.35 32.3 340.8 43.05 348.9 44.45 349.95 55.7 357.9
L 56.3 357.35
Q 54.9 354.75 54.1 353.55 48.3 344.35 45.3 339.8 37.75 328.4 41.35 314.15 48.35 286.55 73.45 280.35 90.95 276 110.3 283.35 115.2 285.25 125.25 289.7 112.15 272.15 112.05 272 100.2 255.65 92.25 243.2 82.15 227.25 75.15 212.75 70.45 203.15 69.2 196.05 68.05 189.1 69.55 181.05 70.6 175 73.6 166.55 76.85 157.35 83.05 146.7 86 141.65 94.8 128.1 105.15 112.15 111.85 100.3 114.55 95.5 114.3 90.85 Z"/>
</g>
</defs>

<g transform="matrix( 0.2978973388671875, 0, 0, 0.2978973388671875, 133.65,-3) ">
<g transform="matrix( 1.057861328125, 0, 0, 1.057861328125, -72.2,14.6) ">
<g transform="matrix( 0.848297119140625, 0, 0, 0.848297119140625, 1.05,1.25) ">
<use xlink:href="#Duplicate_Items_Folder_Note_copy_3_6_Layer3_0_FILL"/>
</g>
</g>
</g>
</svg>
