
<svg xmlns="http://www.w3.org/2000/svg" version="1.1" xmlns:xlink="http://www.w3.org/1999/xlink" preserveAspectRatio="none" x="0px" y="0px" width="240px" height="100px" viewBox="0 0 240 100">
<defs>
<g id="Layer1_0_FILL">
<path fill="#000000" stroke="none" d="
M 212.2 40.2
Q 210.95 32.15 204.75 23 198.55 13.8 189 3.8 187.1 2.2 186.7 -0.5 184.6 1.05 184.45 4
L 184.45 68.5 184.25 68.55
Q 183.5 68.3 183.2 68.15 178.3 65.8 173.6 66.2 166.9 66.75 161.9 69.7 158.75 71.65 156.5 73.8 155.75 74.5 155.1 75.2 152.1 78.6 151 82.85 150.2 85.85 151.5 89.1 152.8 92.35 155.4 94 155.95 94.3 156.5 94.6 159.2 96 162.2 96.4 165.5 96.75 169.4 95.95 178.1 94.2 184.4 87.85 189 83.1 189 77.3
L 189.05 20.5
Q 190.95 22.45 193.75 25.15 196.55 27.9 199.7 31.15 202.85 34.35 205.35 40.65 207.85 46.9 207.85 50.65 207.8 54.4 207.2 57.3 206.55 60.15 205.35 63.35 204.7 65.15 203.3 68.8 208 63 210.4 56.45 213.4 48.2 212.2 40.2 Z"/>
</g>

<g id="Duplicate_Items_Folder_Notes_74_Layer0_0_FILL">
<path fill="#000000" stroke="none" d="
M 52.2 -32.75
Q 25.75 -32.2 6.2 -15.05 -13.3 2 -18.25 28.8 -22.7 53.35 -10 75.55 2.7 97.7 26.85 107.6 65.7 123.65 112.7 119.2 127.3 117.8 158.4 114 156.6 122.05 153.25 137.3 150.35 150.6 147.85 159.45 144.1 172.85 124.05 242.35 109.5 292.9 100.9 325.4 97.95 336.3 96.45 351.2 96.15 354.25 94.5 377.55 94 383.9 97.9 387.7 101.6 391.3 108.5 392.15 122.35 393.8 127.1 381.2 130.05 373.8 131.5 368.95 158.15 279 171.4 234 194.5 155.7 211 99 221.35 63.75 231.9 18.65 232.7 15 231.45 10.05 230.05 4.9 227.65 3.55 224.1 1.5 218.75 1.45 213.35 1.3 209.75 3.2 205.85 5.25 201.85 9.9 199.9 12.3 195.3 18.65 192.45 22.7 185.75 33.7 179.85 43.35 175.8 48.5 165.35 61.95 151.45 68.35 137.85 74.5 122.45 73.35 123.8 56.4 124.35 48.2 125.3 33.8 123.65 24.55 119.15 -0.85 98.3 -17.2 77.85 -33.3 52.2 -32.75 Z"/>
</g>
</defs>

<g transform="matrix( 1, 0, 0, 1, 0,0) ">
<use xlink:href="#Layer1_0_FILL"/>
</g>

<g transform="matrix( 0.2978973388671875, 0, 0, 0.2978973388671875, 73.95,-30.85) ">
<g transform="matrix( 0.6094970703125, 0, 0, 0.6094970703125, -103.95,162.1) ">
<use xlink:href="#Duplicate_Items_Folder_Notes_74_Layer0_0_FILL"/>
</g>
</g>
</svg>
