
<svg xmlns="http://www.w3.org/2000/svg" version="1.1" xmlns:xlink="http://www.w3.org/1999/xlink" preserveAspectRatio="none" x="0px" y="0px" width="180px" height="100px" viewBox="0 0 180 100">
<defs>
<g id="Layer1_0_FILL">
<path fill="#000000" stroke="none" d="
M 105.5 3.8
L 100.9 3.8 100.9 68.3 100.7 68.35
Q 99.95 68.1 99.65 67.95 94.75 65.6 90.05 66 83.35 66.55 78.35 69.5 74.15 72.1 71.55 75 68.55 78.4 67.45 82.65 66.65 85.65 67.95 88.9 69.25 92.15 71.85 93.8 75.05 95.7 78.65 96.2 81.95 96.55 85.85 95.75 94.55 94 100.85 87.65 105.45 82.9 105.45 77.1
L 105.5 3.8
M 172.5 3.8
L 167.9 3.8 167.9 68.3 167.7 68.35
Q 166.95 68.1 166.65 67.95 161.75 65.6 157.05 66 150.35 66.55 145.35 69.5 141.15 72.1 138.55 75 135.55 78.4 134.45 82.65 133.65 85.65 134.95 88.9 136.25 92.15 138.85 93.8 142.05 95.7 145.65 96.2 148.95 96.55 152.85 95.75 161.55 94 167.85 87.65 172.45 82.9 172.45 77.1
L 172.5 3.8 Z"/>
</g>

<g id="Duplicate_Items_Folder_Notes_74_Layer0_0_FILL">
<path fill="#000000" stroke="none" d="
M 52.2 -32.75
Q 25.75 -32.2 6.2 -15.05 -13.3 2 -18.25 28.8 -22.7 53.35 -10 75.55 2.7 97.7 26.85 107.6 65.7 123.65 112.7 119.2 127.3 117.8 158.4 114 156.6 122.05 153.25 137.3 150.35 150.6 147.85 159.45 144.1 172.85 124.05 242.35 109.5 292.9 100.9 325.4 97.95 336.3 96.45 351.2 96.15 354.25 94.5 377.55 94 383.9 97.9 387.7 101.6 391.3 108.5 392.15 122.35 393.8 127.1 381.2 130.05 373.8 131.5 368.95 158.15 279 171.4 234 194.5 155.7 211 99 221.35 63.75 231.9 18.65 232.7 15 231.45 10.05 230.05 4.9 227.65 3.55 224.1 1.5 218.75 1.45 213.35 1.3 209.75 3.2 205.85 5.25 201.85 9.9 199.9 12.3 195.3 18.65 192.45 22.7 185.75 33.7 179.85 43.35 175.8 48.5 165.35 61.95 151.45 68.35 137.85 74.5 122.45 73.35 123.8 56.4 124.35 48.2 125.3 33.8 123.65 24.55 119.15 -0.85 98.3 -17.2 77.85 -33.3 52.2 -32.75 Z"/>
</g>

<g id="Layer0_0_FILL">
<path fill="#000000" stroke="none" d="
M 172.5 25.5
L 172.5 3.3 100.9 3.3 100.9 25.5 172.5 25.5 Z"/>
</g>
</defs>

<g transform="matrix( 1, 0, 0, 1, 0,0) ">
<use xlink:href="#Layer1_0_FILL"/>
</g>

<g transform="matrix( 0.2978973388671875, 0, 0, 0.2978973388671875, 45.95,-30.85) ">
<g transform="matrix( 0.6094970703125, 0, 0, 0.6094970703125, -103.95,162.1) ">
<use xlink:href="#Duplicate_Items_Folder_Notes_74_Layer0_0_FILL"/>
</g>
</g>

<g transform="matrix( 1, 0, 0, 1, 0,0) ">
<use xlink:href="#Layer0_0_FILL"/>
</g>
</svg>
