
<svg xmlns="http://www.w3.org/2000/svg" version="1.1" xmlns:xlink="http://www.w3.org/1999/xlink" preserveAspectRatio="none" x="0px" y="0px" width="240px" height="100px" viewBox="0 0 240 100">
<defs>
<g id="Layer1_0_FILL">
<path fill="#000000" stroke="none" d="
M 76.85 73.7
Q 75.2 72 72.8 72 70.4 72 68.7 73.7 67 75.4 67 77.8 67 80.2 68.7 81.85 70.4 83.6 72.8 83.6 75.2 83.6 76.85 81.85 78.6 80.2 78.6 77.8 78.6 75.4 76.85 73.7
M 63 3.8
L 58.4 3.8 58.4 68.3 58.2 68.35
Q 57.45 68.1 57.15 67.95 52.25 65.6 47.55 66 40.85 66.55 35.85 69.5 31.65 72.1 29.05 75 26.05 78.4 24.95 82.65 24.15 85.65 25.45 88.9 26.75 92.15 29.35 93.8 32.55 95.7 36.15 96.2 39.45 96.55 43.35 95.75 52.05 94 58.35 87.65 62.95 82.9 62.95 77.1
L 63 3.8
M 216 3.8
L 211.4 3.8 211.4 68.3 211.2 68.35
Q 210.45 68.1 210.15 67.95 205.25 65.6 200.55 66 193.85 66.55 188.85 69.5 184.65 72.1 182.05 75 179.05 78.4 177.95 82.65 177.15 85.65 178.45 88.9 179.75 92.15 182.35 93.8 185.55 95.7 189.15 96.2 192.45 96.55 196.35 95.75 205.05 94 211.35 87.65 215.95 82.9 215.95 77.1
L 216 3.8 Z"/>
</g>

<g id="Layer0_0_FILL">
<path fill="#000000" stroke="none" d="
M 215.05 48
L 215.05 28.8 170 28.8 170 48 215.05 48
M 216 22.5
L 216 3.3 58.5 3.3 58.5 22.5 216 22.5 Z"/>
</g>
</defs>

<g transform="matrix( 1, 0, 0, 1, 0,0) ">
<use xlink:href="#Layer1_0_FILL"/>
</g>

<g transform="matrix( 1, 0, 0, 1, 0,0) ">
<use xlink:href="#Layer0_0_FILL"/>
</g>
</svg>
