
<svg xmlns="http://www.w3.org/2000/svg" version="1.1" xmlns:xlink="http://www.w3.org/1999/xlink" preserveAspectRatio="none" x="0px" y="0px" width="120px" height="100px" viewBox="0 0 120 100">
<defs>
<g id="Layer1_0_FILL">
<path fill="#000000" stroke="none" d="
M 118.7 42.2
Q 117.45 34.15 111.25 25 105.05 15.8 95.5 5.8 93.6 4.2 93.2 1.5 91.1 3.05 90.95 6
L 90.95 70.5 90.75 70.55
Q 90 70.3 89.7 70.15 84.8 67.8 80.1 68.2 73.4 68.75 68.4 71.7 64.2 74.3 61.6 77.2 58.6 80.6 57.5 84.85 56.7 87.85 58 91.1 59.3 94.35 61.9 96 65.1 97.9 68.7 98.4 72 98.75 75.9 97.95 84.6 96.2 90.9 89.85 95.5 85.1 95.5 79.3
L 95.55 22.5
Q 97.45 24.45 100.25 27.15 103.05 29.9 106.2 33.15 109.35 36.35 111.85 42.65 114.35 48.9 114.35 52.65 114.3 56.4 113.7 59.3 113.05 62.15 111.85 65.35 111.2 67.15 109.8 70.8 114.5 65 116.9 58.45 119.9 50.2 118.7 42.2 Z"/>
</g>
</defs>

<g transform="matrix( 1, 0, 0, 1, 0,0) ">
<use xlink:href="#Layer1_0_FILL"/>
</g>
</svg>
