
<svg xmlns="http://www.w3.org/2000/svg" version="1.1" xmlns:xlink="http://www.w3.org/1999/xlink" preserveAspectRatio="none" x="0px" y="0px" width="240px" height="100px" viewBox="0 0 240 100">
<defs>
<g id="Layer1_0_FILL">
<path fill="#000000" stroke="none" d="
M 171 3.8
L 166.4 3.8 166.4 68.3 166.2 68.35
Q 165.45 68.1 165.15 67.95 160.25 65.6 155.55 66 148.85 66.55 143.85 69.5 139.65 72.1 137.05 75 134.05 78.4 132.95 82.65 132.15 85.65 133.45 88.9 134.75 92.15 137.35 93.8 140.55 95.7 144.15 96.2 147.45 96.55 151.35 95.75 160.05 94 166.35 87.65 170.95 82.9 170.95 77.1
L 171 3.8
M 37.15 68.3
L 36.95 68.35
Q 36.2 68.1 35.9 67.95 31 65.6 26.3 66 19.6 66.55 14.6 69.5 10.4 72.1 7.8 75 4.8 78.4 3.7 82.65 2.9 85.65 4.2 88.9 5.5 92.15 8.1 93.8 11.3 95.7 14.9 96.2 18.2 96.55 22.1 95.75 30.8 94 37.1 87.65 41.7 82.9 41.7 77.1
L 41.75 3.8 37.15 3.8 37.15 68.3
M 233.5 3.8
L 228.9 3.8 228.9 68.3 228.7 68.35
Q 227.95 68.1 227.65 67.95 222.75 65.6 218.05 66 211.35 66.55 206.35 69.5 202.15 72.1 199.55 75 196.55 78.4 195.45 82.65 194.65 85.65 195.95 88.9 197.25 92.15 199.85 93.8 203.05 95.7 206.65 96.2 209.95 96.55 213.85 95.75 222.55 94 228.85 87.65 233.45 82.9 233.45 77.1
L 233.5 3.8 Z"/>
</g>

<g id="Layer0_0_FILL">
<path fill="#000000" stroke="none" d="
M 232.6 48
L 232.6 28.8 166.45 28.8 166.45 48 232.6 48
M 233.5 22.5
L 233.5 3.3 37.25 3.3 37.25 22.5 233.5 22.5 Z"/>
</g>
</defs>

<g transform="matrix( 1, 0, 0, 1, 0,0) ">
<use xlink:href="#Layer1_0_FILL"/>
</g>

<g transform="matrix( 1, 0, 0, 1, 0,0) ">
<use xlink:href="#Layer0_0_FILL"/>
</g>
</svg>
