
<svg xmlns="http://www.w3.org/2000/svg" version="1.1" xmlns:xlink="http://www.w3.org/1999/xlink" preserveAspectRatio="none" x="0px" y="0px" width="120px" height="100px" viewBox="0 0 120 100">
<defs>
<g id="Layer1_0_FILL">
<path fill="#000000" stroke="none" d="
M 114.55 3.25
L 109.95 3.25 109.95 67.75 109.75 67.8
Q 109 67.55 108.7 67.4 103.8 65.05 99.1 65.45 92.4 66 87.4 68.95 83.2 71.55 80.6 74.45 77.6 77.85 76.5 82.1 75.7 85.1 77 88.35 78.3 91.6 80.9 93.25 84.1 95.15 87.7 95.65 91 96 94.9 95.2 103.6 93.45 109.9 87.1 114.5 82.35 114.5 76.55
L 114.55 3.25
M 39.25 3.3
L 34.65 3.3 34.65 67.8 34.45 67.85
Q 33.7 67.6 33.4 67.45 28.5 65.1 23.8 65.5 17.1 66.05 12.1 69 7.9 71.6 5.3 74.5 2.3 77.9 1.2 82.15 0.4 85.15 1.7 88.4 3 91.65 5.6 93.3 8.8 95.2 12.4 95.7 15.7 96.05 19.6 95.25 28.3 93.5 34.6 87.15 39.2 82.4 39.2 76.6
L 39.25 3.3 Z"/>
</g>

<g id="Layer0_0_FILL">
<path fill="#000000" stroke="none" d="
M 109.95 25.5
L 109.95 3.3 34.65 3.3 34.65 25.5 109.95 25.5 Z"/>
</g>
</defs>

<g transform="matrix( 1, 0, 0, 1, 0,0) ">
<use xlink:href="#Layer1_0_FILL"/>
</g>

<g transform="matrix( 1, 0, 0, 1, 0,0) ">
<use xlink:href="#Layer0_0_FILL"/>
</g>
</svg>
