
<svg xmlns="http://www.w3.org/2000/svg" version="1.1" xmlns:xlink="http://www.w3.org/1999/xlink" preserveAspectRatio="none" x="0px" y="0px" width="240px" height="100px" viewBox="0 0 240 100">
<defs>
<g id="Layer1_0_FILL">
<path fill="#000000" stroke="none" d="
M 231 3.8
L 226.4 3.8 226.4 68.3 226.2 68.35
Q 225.45 68.1 225.15 67.95 220.25 65.6 215.55 66 208.85 66.55 203.85 69.5 199.65 72.1 197.05 75 194.05 78.4 192.95 82.65 192.15 85.65 193.45 88.9 194.75 92.15 197.35 93.8 200.55 95.7 204.15 96.2 207.45 96.55 211.35 95.75 220.05 94 226.35 87.65 230.95 82.9 230.95 77.1
L 231 3.8
M 164.7 77.1
L 164.75 3.8 160.15 3.8 160.15 68.3 159.95 68.35
Q 159.2 68.1 158.9 67.95 154 65.6 149.3 66 142.6 66.55 137.6 69.5 133.4 72.1 130.8 75 127.8 78.4 126.7 82.65 125.9 85.65 127.2 88.9 128.5 92.15 131.1 93.8 134.3 95.7 137.9 96.2 141.2 96.55 145.1 95.75 153.8 94 160.1 87.65 164.7 82.9 164.7 77.1 Z"/>
</g>

<g id="Duplicate_Items_Folder_Notes_74_Layer0_0_FILL">
<path fill="#000000" stroke="none" d="
M 52.2 -32.75
Q 25.75 -32.2 6.2 -15.05 -13.3 2 -18.25 28.8 -22.7 53.35 -10 75.55 2.7 97.7 26.85 107.6 65.7 123.65 112.7 119.2 127.3 117.8 158.4 114 156.6 122.05 153.25 137.3 150.35 150.6 147.85 159.45 144.1 172.85 124.05 242.35 109.5 292.9 100.9 325.4 97.95 336.3 96.45 351.2 96.15 354.25 94.5 377.55 94 383.9 97.9 387.7 101.6 391.3 108.5 392.15 122.35 393.8 127.1 381.2 130.05 373.8 131.5 368.95 158.15 279 171.4 234 194.5 155.7 211 99 221.35 63.75 231.9 18.65 232.7 15 231.45 10.05 230.05 4.9 227.65 3.55 224.1 1.5 218.75 1.45 213.35 1.3 209.75 3.2 205.85 5.25 201.85 9.9 199.9 12.3 195.3 18.65 192.45 22.7 185.75 33.7 179.85 43.35 175.8 48.5 165.35 61.95 151.45 68.35 137.85 74.5 122.45 73.35 123.8 56.4 124.35 48.2 125.3 33.8 123.65 24.55 119.15 -0.85 98.3 -17.2 77.85 -33.3 52.2 -32.75 Z"/>
</g>

<g id="Layer0_0_FILL">
<path fill="#000000" stroke="none" d="
M 231.05 22.5
L 231.05 3.3 160.25 3.3 160.25 22.5 231.05 22.5
M 231.05 48
L 231.05 28.8 160.25 28.8 160.25 48 231.05 48 Z"/>
</g>
</defs>

<g transform="matrix( 1, 0, 0, 1, 0,0) ">
<use xlink:href="#Layer1_0_FILL"/>
</g>

<g transform="matrix( 0.2978973388671875, 0, 0, 0.2978973388671875, 68.95,-30.85) ">
<g transform="matrix( 0.6094970703125, 0, 0, 0.6094970703125, -103.95,162.1) ">
<use xlink:href="#Duplicate_Items_Folder_Notes_74_Layer0_0_FILL"/>
</g>
</g>

<g transform="matrix( 1, 0, 0, 1, 0,0) ">
<use xlink:href="#Layer0_0_FILL"/>
</g>
</svg>
