
<svg xmlns="http://www.w3.org/2000/svg" version="1.1" xmlns:xlink="http://www.w3.org/1999/xlink" preserveAspectRatio="none" x="0px" y="0px" width="180px" height="100px" viewBox="0 0 180 100">
<defs>
<g id="Layer1_0_FILL">
<path fill="#000000" stroke="none" d="
M 44.95 25.2
Q 47.75 27.95 50.9 31.2 54.05 34.4 56.55 40.7 59.05 46.95 59.05 50.7 59 54.45 58.4 57.35 57.75 60.2 56.55 63.4 55.9 65.2 54.5 68.85 59.2 63.05 61.6 56.5 64.6 48.25 63.4 40.25 62.15 32.2 55.95 23.05 49.75 13.85 40.2 3.85 38.3 2.25 37.9 -0.45 35.8 1.1 35.65 4.05
L 35.65 68.55 35.45 68.6
Q 34.7 68.35 34.4 68.2 29.5 65.85 24.8 66.25 18.1 66.8 13.1 69.75 8.9 72.35 6.3 75.25 3.3 78.65 2.2 82.9 1.4 85.9 2.7 89.15 4 92.4 6.6 94.05 9.8 95.95 13.4 96.45 16.7 96.8 20.6 96 29.3 94.25 35.6 87.9 40.2 83.15 40.2 77.35
L 40.25 20.55
Q 42.15 22.5 44.95 25.2
M 105.5 3.8
L 100.9 3.8 100.9 68.3 100.7 68.35
Q 99.95 68.1 99.65 67.95 94.75 65.6 90.05 66 83.35 66.55 78.35 69.5 74.15 72.1 71.55 75 68.55 78.4 67.45 82.65 66.65 85.65 67.95 88.9 69.25 92.15 71.85 93.8 75.05 95.7 78.65 96.2 81.95 96.55 85.85 95.75 94.55 94 100.85 87.65 105.45 82.9 105.45 77.1
L 105.5 3.8 Z"/>
</g>
</defs>

<g transform="matrix( 1, 0, 0, 1, 0,0) ">
<use xlink:href="#Layer1_0_FILL"/>
</g>
</svg>
